<svg width="498.667" height="130.667" viewBox="0 0 373.81 98" xmlns="http://www.w3.org/2000/svg" xmlns:xlink="http://www.w3.org/1999/xlink" overflow="hidden"><g id="graph0" transform="translate(4 94)"><path d="M-4 4-4-94 369.807-94 369.807 4-4 4Z" fill="#FFFFFF"/><g id="node1"><path d="M75.3492-63C75.3492-63 12.2162-63 12.2162-63 6.2162-63 0.2162-57 0.2162-51 0.2162-51 0.2162-39 0.2162-39 0.2162-33 6.2162-27 12.2162-27 12.2162-27 75.3492-27 75.3492-27 81.3492-27 87.3492-33 87.3492-39 87.3492-39 87.3492-51 87.3492-51 87.3492-57 81.3492-63 75.3492-63" stroke="#000000" fill="none"/><text fill="#000000" font-family="Times,Times New Roman" font-size="14" text-anchor="middle" x="43.7827" y="-40.8">PUB time.us</text></g><g id="node2"><ellipse cx="182.903" cy="-45" rx="36" ry="36" stroke="#000000" fill="none"/><text fill="#000000" font-family="Times,Times New Roman" font-size="14" text-anchor="middle" x="182.903" y="-40.8">nats-server</text></g><g id="edge1"><path d="M87.4196-45C103.108-45 120.849-45 136.745-45" stroke="#000000" fill="none"/><path d="M136.884-48.5001 146.884-45 136.884-41.5001 136.884-48.5001Z" stroke="#000000" fill="#000000"/><text fill="#000000" font-family="Times,Times New Roman" font-size="14" text-anchor="middle" x="117.234" y="-47.8">msg</text></g><g id="node3"><path d="M353.59-90C353.59-90 290.457-90 290.457-90 284.457-90 278.457-84 278.457-78 278.457-78 278.457-66 278.457-66 278.457-60 284.457-54 290.457-54 290.457-54 353.59-54 353.59-54 359.59-54 365.59-60 365.59-66 365.59-66 365.59-78 365.59-78 365.59-84 359.59-90 353.59-90" stroke="#000000" fill="none"/><text fill="#000000" font-family="Times,Times New Roman" font-size="14" text-anchor="middle" x="322.024" y="-67.8">SUB time.us</text></g><g id="edge2"><path d="M218.369-51.8831C233.503-54.8201 251.497-58.3123 268.21-61.5561" stroke="#000000" fill="none"/><path d="M267.931-65.0671 278.415-63.5365 269.265-58.1953 267.931-65.0671Z" stroke="#000000" fill="#000000"/><text fill="#000000" font-family="Times,Times New Roman" font-size="14" text-anchor="middle" x="248.572" y="-61.8">msg</text></g><g id="node4"><path d="M353.59-36C353.59-36 290.457-36 290.457-36 284.457-36 278.457-30 278.457-24 278.457-24 278.457-12 278.457-12 278.457-6 284.457 0 290.457 0 290.457 0 353.59 0 353.59 0 359.59 0 365.59-6 365.59-12 365.59-12 365.59-24 365.59-24 365.59-30 359.59-36 353.59-36" stroke="#000000" fill="none"/><text fill="#000000" font-family="Times,Times New Roman" font-size="14" text-anchor="middle" x="322.024" y="-13.8">SUB time.us</text></g><g id="edge3"><path d="M218.369-38.1169C233.503-35.1799 251.497-31.6877 268.21-28.4439" stroke="#000000" fill="none"/><path d="M269.265-31.8047 278.415-26.4635 267.931-24.9329 269.265-31.8047Z" stroke="#000000" fill="#000000"/><text fill="#000000" font-family="Times,Times New Roman" font-size="14" text-anchor="middle" x="248.572" y="-35.8">msg</text></g></g></svg>