<svg width="778.667" height="250.667" viewBox="0 0 584 188" xmlns="http://www.w3.org/2000/svg" xmlns:xlink="http://www.w3.org/1999/xlink" overflow="hidden"><g id="graph0" transform="translate(4 184)"><path d="M-4 4-4-184 580-184 580 4-4 4Z" fill="#FFFFFF"/><g id="node1"><path d="M170.156-180 79.8441-180 79.8441-144 170.156-144 170.156-180Z" stroke="#000000" fill="none"/><text fill="#000000" font-family="Times,Times New Roman" font-size="14" text-anchor="middle" x="125" y="-164.8">SUB</text><text fill="#000000" font-family="Times,Times New Roman" font-size="14" text-anchor="middle" x="125" y="-150.8">com.msg.one</text></g><g id="node2"><path d="M333.156-180 242.844-180 242.844-144 333.156-144 333.156-180Z" stroke="#000000" fill="none"/><text fill="#000000" font-family="Times,Times New Roman" font-size="14" text-anchor="middle" x="288" y="-164.8">PUB</text><text fill="#000000" font-family="Times,Times New Roman" font-size="14" text-anchor="middle" x="288" y="-150.8">com.msg.one</text></g><g id="node4"><path d="M576-108 0-108 0-72 576-72 576-108Z" stroke="#000000" fill="none"/><text fill="#000000" font-family="Times,Times New Roman" font-size="14" text-anchor="middle" x="288" y="-85.8">NATS</text></g><g id="edge1"><path d="M288-143.831C288-143.831 288-118.413 288-118.413" stroke="#000000" stroke-width="2" fill="none"/><path d="M291.5-118.413 288-108.413 284.5-118.413 291.5-118.413Z" stroke="#000000" stroke-width="2" fill="#000000"/></g><g id="node3"><path d="M487.09-180 404.91-180 404.91-144 487.09-144 487.09-180Z" stroke="#000000" fill="none"/><text fill="#000000" font-family="Times,Times New Roman" font-size="14" text-anchor="middle" x="446" y="-164.8">Non-Active</text><text fill="#000000" font-family="Times,Times New Roman" font-size="14" text-anchor="middle" x="446" y="-150.8">Subscriber</text></g><g id="edge2"><path d="M125-108.169C125-108.169 125-133.587 125-133.587" stroke="#000000" stroke-width="2" fill="none"/><path d="M121.5-133.587 125-143.587 128.5-133.587 121.5-133.587Z" stroke="#000000" stroke-width="2" fill="#000000"/></g><g id="edge3"><path d="M446-108.169C446-119 446-132.712 446-143.587" stroke="#FF0000" stroke-dasharray="5 2" fill="none"/></g><g id="node5"><path d="M170.156-36 79.8441-36 79.8441 0 170.156 0 170.156-36Z" stroke="#000000" fill="none"/><text fill="#000000" font-family="Times,Times New Roman" font-size="14" text-anchor="middle" x="125" y="-20.8">SUB</text><text fill="#000000" font-family="Times,Times New Roman" font-size="14" text-anchor="middle" x="125" y="-6.8">com.msg.one</text></g><g id="edge4"><path d="M125-71.8314C125-71.8314 125-46.4133 125-46.4133" stroke="#000000" stroke-width="2" fill="none"/><path d="M128.5-46.4132 125-36.4133 121.5-46.4133 128.5-46.4132Z" stroke="#000000" stroke-width="2" fill="#000000"/></g><g id="node6"><path d="M333.943-36 242.057-36 242.057 0 333.943 0 333.943-36Z" stroke="#000000" fill="none"/><text fill="#000000" font-family="Times,Times New Roman" font-size="14" text-anchor="middle" x="288" y="-20.8">SUB</text><text fill="#000000" font-family="Times,Times New Roman" font-size="14" text-anchor="middle" x="288" y="-6.8">com.msg.two</text></g><g id="edge5"><path d="M288-71.8314C288-61 288-47.2876 288-36.4133" stroke="#FF0000" stroke-dasharray="5 2" fill="none"/></g><g id="node7"><path d="M482.943-36 405.057-36 405.057 0 482.943 0 482.943-36Z" stroke="#000000" fill="none"/><text fill="#000000" font-family="Times,Times New Roman" font-size="14" text-anchor="middle" x="444" y="-20.8">SUB</text><text fill="#000000" font-family="Times,Times New Roman" font-size="14" text-anchor="middle" x="444" y="-6.8">com.msg.*</text></g><g id="edge6"><path d="M444-71.8314C444-71.8314 444-46.4133 444-46.4133" stroke="#000000" stroke-width="2" fill="none"/><path d="M447.5-46.4132 444-36.4133 440.5-46.4133 447.5-46.4132Z" stroke="#000000" stroke-width="2" fill="#000000"/></g></g></svg>